<?xml version="1.0" standalone="no"?>
<!DOCTYPE svg PUBLIC "-//W3C//DTD SVG 20010904//EN"
 "http://www.w3.org/TR/2001/REC-SVG-20010904/DTD/svg10.dtd">
<svg version="1.0" xmlns="http://www.w3.org/2000/svg"
 width="5785.000000pt" height="1505.000000pt" viewBox="0 0 5785.000000 1505.000000"
 preserveAspectRatio="xMidYMid meet">

<g transform="translate(0.000000,1505.000000) scale(0.100000,-0.100000)"
fill="#000000" stroke="none">
<path d="M24727 11532 l-77 -77 0 -1753 0 -1752 -408 0 -407 0 -37 125 c-45
150 -117 306 -195 423 -72 107 -298 342 -413 428 -155 117 -331 193 -542 236
-106 22 -136 23 -508 23 -272 0 -426 -4 -495 -13 -649 -87 -1385 -347 -2140
-758 -117 -63 -153 -89 -222 -157 l-83 -82 0 -112 0 -113 -277 0 -277 0 27 28
c27 28 27 29 27 178 l0 150 -142 140 c-79 77 -179 168 -223 201 -405 305 -855
481 -1365 533 -175 18 -773 8 -915 -14 -338 -54 -649 -172 -872 -329 -100 -71
-338 -298 -423 -403 -128 -159 -153 -233 -89 -258 16 -6 29 -17 29 -26 0 -21
20 -40 41 -40 11 0 19 -9 21 -22 2 -13 15 -29 31 -36 16 -8 27 -21 27 -33 0
-17 34 -40 58 -39 4 0 21 31 39 68 91 191 261 380 463 514 228 151 560 264
910 310 122 15 446 15 575 -1 502 -62 981 -259 1348 -554 65 -52 177 -155 177
-161 0 -2 -178 -173 -396 -381 l-395 -377 -102 99 c-197 191 -376 305 -607
384 -287 99 -539 69 -705 -83 -140 -128 -207 -417 -133 -579 70 -154 249 -255
713 -404 653 -209 841 -279 1054 -391 323 -171 555 -397 680 -665 88 -188 125
-372 125 -629 0 -267 -37 -444 -135 -649 -238 -501 -747 -823 -1464 -927 -165
-24 -555 -25 -708 -1 -746 115 -1363 489 -1782 1081 -34 48 -46 72 -39 82 11
16 875 707 878 702 2 -2 26 -41 54 -88 231 -385 571 -674 934 -794 133 -44
244 -60 372 -53 125 7 197 25 306 79 218 106 339 321 328 579 -6 118 -37 194
-118 282 -149 163 -291 227 -1030 462 -496 157 -852 347 -1086 580 -61 60
-128 135 -148 165 -28 42 -36 50 -36 32 0 -12 -4 -22 -8 -22 -5 0 -19 -46 -32
-102 -13 -57 -27 -105 -31 -108 -3 -3 -16 -48 -28 -100 -13 -52 -29 -108 -36
-125 -7 -16 -20 -64 -30 -105 -9 -41 -23 -88 -30 -105 -7 -16 -20 -64 -29
-105 -10 -41 -22 -83 -27 -93 -5 -10 -7 -22 -4 -27 4 -6 2 -10 -3 -10 -5 0
-17 -37 -27 -82 -10 -46 -23 -88 -28 -95 -5 -7 -6 -17 -2 -23 3 -5 2 -10 -3
-10 -5 0 -17 -37 -27 -82 -10 -46 -23 -88 -28 -95 -5 -7 -6 -16 -3 -22 3 -5 2
-11 -3 -13 -7 -3 -51 -161 -53 -195 -1 -7 -4 -13 -8 -13 -4 0 -15 -37 -25 -82
-10 -46 -23 -88 -28 -95 -5 -7 -6 -17 -2 -23 3 -5 2 -10 -3 -10 -5 0 -19 -46
-32 -102 -13 -57 -26 -105 -30 -108 -4 -3 -18 -50 -30 -105 -13 -55 -26 -102
-30 -105 -4 -3 -18 -50 -30 -105 -12 -55 -26 -102 -30 -105 -4 -3 -16 -44 -27
-92 l-20 -88 160 0 160 0 126 -123 c69 -67 162 -151 206 -187 280 -224 647
-405 1000 -493 273 -68 312 -72 790 -72 485 0 547 6 820 75 283 72 504 174
715 328 87 64 336 305 417 404 l55 68 287 -1 286 0 45 -72 c66 -105 386 -424
504 -501 187 -123 430 -219 687 -272 128 -27 150 -28 479 -32 218 -2 381 1
445 8 325 37 681 153 966 316 l112 64 67 -64 c123 -115 348 -251 583 -352 78
-34 80 -34 236 -34 l157 0 339 306 c187 168 393 358 458 422 117 116 117 117
117 164 l0 48 105 0 105 0 0 -313 0 -312 78 -78 77 -77 780 0 780 0 78 78 77
77 0 313 0 312 675 0 675 0 0 -313 0 -312 78 -78 77 -77 775 0 775 0 78 78 77
77 0 313 0 312 489 0 490 0 148 -151 c257 -263 410 -378 668 -504 265 -129
517 -197 835 -225 151 -13 745 -13 884 0 256 25 483 90 717 207 254 127 467
281 741 536 l146 137 650 0 650 0 228 -228 c252 -251 342 -321 534 -421 321
-165 560 -209 1095 -198 326 6 473 24 699 82 265 68 566 199 754 327 l43 30
108 -105 c168 -162 393 -299 677 -411 91 -36 92 -36 245 -36 l154 0 186 188
c102 103 301 307 442 453 203 211 257 272 257 293 l0 26 130 0 130 0 0 -313 0
-312 78 -78 77 -77 780 0 780 0 78 78 77 77 0 313 0 312 1274 0 1275 0 148
-151 c249 -255 397 -367 647 -490 236 -116 496 -189 792 -224 152 -18 794 -21
939 -5 358 40 678 140 938 293 176 105 269 179 473 380 l201 197 536 0 537 0
0 -313 0 -312 78 -78 77 -77 780 0 780 0 78 78 77 77 0 313 0 312 675 0 675 0
0 -313 0 -312 78 -78 77 -77 775 0 775 0 78 78 77 77 0 2070 c0 1779 -2 2088
-15 2199 -38 327 -117 571 -253 781 -49 76 -301 340 -395 412 -149 116 -353
194 -589 228 -144 20 -665 21 -820 0 -321 -42 -701 -179 -1041 -375 -48 -27
-89 -50 -92 -50 -3 0 -5 42 -5 93 l0 92 -78 78 -77 77 -780 0 -780 0 -78 -78
-77 -77 0 -493 0 -492 -417 0 -418 1 -47 77 c-86 143 -171 246 -352 430 -266
270 -394 367 -650 493 -238 117 -498 190 -796 224 -197 23 -839 17 -1000 -9
-447 -73 -808 -225 -1110 -469 -155 -126 -436 -421 -523 -552 l-27 -40 0 141
0 140 -167 165 c-236 232 -418 361 -663 470 -308 137 -482 169 -921 169 -280
0 -302 -1 -391 -24 -114 -29 -216 -70 -323 -131 l-79 -45 -51 50 -51 50 -745
0 -744 0 -78 -78 -77 -77 0 -493 0 -492 -430 0 -430 0 0 1753 0 1752 -78 78
-77 77 -780 0 -780 0 -78 -78 -77 -77 0 -1206 0 -1206 -93 33 c-122 42 -277
80 -408 99 -150 21 -744 21 -919 0 -432 -54 -810 -213 -1120 -473 -220 -184
-472 -471 -586 -667 l-49 -84 -496 -1 -496 0 -54 96 c-30 52 -90 143 -133 202
-87 117 -357 399 -476 495 -276 223 -621 366 -1020 423 -154 21 -713 31 -888
15 -430 -40 -801 -186 -1142 -449 -114 -89 -418 -393 -516 -517 -43 -55 -103
-137 -133 -183 l-54 -82 -414 2 -415 3 -28 110 c-49 193 -106 327 -198 470
-49 76 -301 340 -395 412 -156 121 -377 203 -628 233 -144 18 -752 8 -889 -14
-277 -46 -567 -141 -857 -281 l-173 -84 0 1327 0 1327 -78 78 -77 77 -780 0
-780 0 -78 -78z m1491 -1780 l2 -1553 58 42 c455 331 971 550 1472 625 139 21
454 24 579 5 393 -59 679 -240 864 -547 102 -169 169 -381 214 -679 15 -100
17 -293 20 -2057 l4 -1948 -631 0 -630 0 -2 1903 c-3 1780 -4 1906 -21 1960
-84 280 -267 361 -586 260 -307 -97 -820 -447 -1237 -846 l-104 -99 0 -1589 0
-1589 -635 0 -635 0 0 3835 0 3835 633 -2 632 -3 3 -1553z m14449 -1686 c3
-3609 -4 -3286 75 -3446 76 -156 247 -301 443 -376 41 -16 74 -32 73 -35 -6
-14 -720 -749 -729 -749 -21 0 -225 87 -339 145 -257 131 -447 285 -557 454
-31 47 -60 90 -64 94 -4 5 -36 -13 -70 -41 -164 -128 -433 -280 -637 -361
-335 -133 -654 -188 -1026 -178 -299 8 -483 52 -731 172 -566 275 -998 886
-1169 1655 -60 273 -70 377 -71 750 0 353 6 446 46 685 111 676 388 1214 801
1561 374 313 811 471 1358 490 277 10 492 -20 754 -107 140 -46 373 -152 514
-234 l62 -36 0 1400 0 1401 633 -2 632 -3 2 -3239z m-18342 814 c693 -66 1105
-481 1231 -1240 16 -95 18 -238 23 -1541 l6 -1435 38 -78 c65 -131 209 -257
423 -372 l90 -49 -377 -340 c-207 -187 -383 -341 -392 -343 -22 -4 -241 96
-368 169 -181 104 -352 248 -450 379 l-26 34 -39 -30 c-301 -235 -738 -416
-1164 -481 -156 -24 -466 -24 -605 0 -412 71 -728 219 -961 452 -252 250 -369
540 -381 950 -8 246 16 422 84 630 125 383 442 702 894 901 319 141 641 221
1159 289 468 61 632 85 723 106 l89 21 -5 307 c-4 235 -9 322 -21 376 -34 143
-105 250 -184 276 -56 18 -248 6 -386 -26 -367 -83 -889 -299 -1485 -614 -159
-84 -196 -100 -206 -89 -28 28 -525 874 -525 891 0 8 252 143 428 231 902 451
1787 682 2387 626z m10597 -5 c221 -10 506 -71 705 -151 408 -164 715 -436
950 -840 110 -190 194 -403 256 -650 73 -290 87 -425 87 -836 l0 -328 -1642 0
-1641 0 6 -162 c14 -374 114 -731 274 -971 100 -150 260 -291 411 -359 159
-72 404 -104 597 -79 218 29 439 140 682 343 144 120 400 392 544 578 30 38
57 69 60 70 3 0 176 -160 385 -356 208 -196 383 -360 387 -364 12 -11 -209
-265 -369 -425 -453 -453 -889 -705 -1369 -791 -218 -39 -675 -36 -935 6 -962
157 -1640 850 -1850 1890 -54 267 -64 378 -64 700 0 315 9 425 60 680 92 467
293 911 564 1246 343 425 828 705 1355 784 98 15 301 28 375 24 30 -2 108 -6
172 -9z m11617 5 c416 -44 840 -239 1165 -538 38 -35 78 -74 88 -87 l18 -23
-420 -406 -420 -407 -49 58 c-78 94 -241 245 -316 294 -82 54 -170 89 -225 89
-286 0 -608 -317 -902 -886 l-78 -151 0 -1592 0 -1591 -635 0 -635 0 0 2577 0
2576 332 -6 c182 -4 452 -7 600 -7 l268 0 0 -247 0 -247 30 47 c68 108 260
283 412 375 252 154 471 203 767 172z m4175 -20 c432 -63 808 -222 1109 -468
96 -79 258 -248 333 -347 346 -456 524 -1082 524 -1837 0 -757 -176 -1379
-517 -1836 -73 -97 -245 -276 -343 -355 -412 -333 -971 -504 -1580 -484 -1485
48 -2312 1064 -2267 2782 7 249 16 359 48 560 189 1186 943 1909 2090 2005
154 13 440 3 603 -20z m6431 10 c432 -61 755 -296 924 -672 40 -89 95 -264
115 -363 52 -259 50 -151 53 -2247 l4 -1948 -631 0 -630 0 -2 1908 c-3 1801
-4 1910 -21 1967 -43 143 -101 225 -191 273 -47 25 -60 27 -166 27 -103 -1
-125 -4 -210 -33 -304 -105 -706 -381 -1201 -823 l-159 -143 0 -1588 0 -1588
-635 0 -635 0 0 2575 0 2575 633 -2 632 -3 3 -322 c1 -178 4 -323 6 -323 3 0
58 38 123 84 531 379 1054 603 1533 655 101 12 343 6 455 -9z m-9098 -880
c-14 -25 -29 -40 -42 -40 -16 0 -12 7 20 40 21 22 40 40 41 40 1 0 -7 -18 -19
-40z"/>
<path d="M38028 7830 c-322 -55 -570 -287 -728 -684 -181 -456 -211 -1213 -69
-1746 113 -426 313 -698 568 -774 72 -21 284 -22 389 -1 410 83 789 379 1146
896 l66 97 0 775 0 775 -117 99 c-239 201 -424 328 -628 429 -249 124 -442
165 -627 134z"/>
<path d="M22275 5920 c-22 -5 -132 -20 -245 -35 -313 -41 -575 -83 -680 -110
-407 -102 -641 -293 -716 -585 -21 -79 -23 -267 -5 -355 30 -143 120 -269 231
-322 48 -24 70 -28 176 -31 143 -5 246 12 396 64 278 97 583 297 811 532 l77
80 0 386 c0 212 -1 386 -2 385 -2 -1 -21 -5 -43 -9z"/>
<path d="M32581 7909 c-156 -26 -297 -103 -426 -233 -98 -99 -160 -186 -236
-329 -45 -87 -119 -259 -119 -278 0 -5 395 -9 905 -9 l905 0 -6 28 c-34 138
-124 340 -206 459 -61 88 -193 216 -272 262 -152 90 -366 129 -545 100z"/>
<path d="M48173 7935 c-433 -79 -737 -434 -867 -1015 -46 -207 -58 -327 -63
-640 -5 -329 7 -500 53 -728 142 -701 548 -1113 1073 -1089 481 22 834 393
975 1027 44 200 57 328 63 627 8 387 -14 602 -88 882 -75 282 -197 511 -362
676 -221 219 -499 312 -784 260z"/>
<path d="M2450 11140 c-141 -18 -255 -59 -357 -128 -89 -61 -302 -285 -341
-359 -61 -115 -64 -137 -69 -393 -7 -390 10 -436 251 -675 141 -141 171 -165
239 -198 154 -75 194 -81 527 -82 335 0 371 5 520 77 78 37 99 54 241 197 237
238 249 269 249 643 0 270 -6 314 -62 428 -26 52 -63 96 -183 216 -141 143
-155 154 -245 197 -144 69 -206 80 -475 83 -126 1 -259 -1 -295 -6z m475 -325
c271 -74 462 -291 482 -545 29 -376 -276 -663 -702 -662 -230 1 -409 69 -550
210 -111 110 -165 244 -165 407 0 167 51 288 169 405 106 105 237 171 399 200
72 13 298 4 367 -15z"/>
<path d="M12440 10329 c-19 -4 -55 -13 -80 -19 -25 -6 -58 -14 -75 -16 -16 -3
-39 -9 -50 -14 -11 -5 -33 -11 -50 -14 -16 -2 -49 -10 -72 -15 -24 -6 -60 -15
-80 -20 -21 -5 -51 -14 -68 -19 -70 -24 -103 -32 -128 -32 -14 0 -28 -4 -31
-9 -3 -5 -23 -11 -43 -14 -21 -3 -58 -11 -83 -17 -25 -6 -62 -14 -83 -17 -20
-3 -40 -9 -43 -14 -3 -5 -20 -9 -39 -9 -19 0 -37 -4 -40 -10 -3 -5 -18 -10
-32 -10 -25 0 -58 -8 -128 -32 -35 -12 -98 -27 -140 -34 -16 -3 -39 -9 -50
-14 -11 -5 -33 -11 -50 -14 -28 -4 -58 -11 -152 -36 -81 -20 -130 -31 -168
-39 -22 -4 -50 -13 -62 -19 -12 -7 -26 -11 -30 -10 -4 2 -27 -3 -50 -10 -24
-6 -62 -17 -85 -23 -24 -6 -57 -15 -74 -20 -17 -5 -42 -9 -57 -9 -14 0 -28 -4
-31 -9 -3 -5 -23 -11 -43 -14 -35 -5 -65 -12 -168 -38 -22 -6 -56 -13 -75 -16
-19 -3 -40 -9 -46 -14 -6 -5 -33 -14 -60 -20 -27 -5 -65 -14 -84 -19 -94 -24
-128 -32 -163 -37 -20 -3 -40 -9 -43 -14 -3 -5 -17 -9 -31 -9 -15 0 -40 -4
-57 -9 -31 -10 -84 -23 -161 -43 -22 -5 -55 -14 -73 -19 -18 -6 -45 -13 -60
-15 -15 -3 -40 -9 -57 -14 -16 -5 -50 -14 -75 -20 -25 -6 -59 -16 -76 -21 -17
-5 -42 -9 -57 -9 -14 0 -29 -4 -32 -10 -3 -5 -21 -10 -40 -10 -19 0 -37 -4
-40 -10 -3 -5 -21 -10 -38 -10 -55 0 -94 -32 -111 -92 -9 -29 -56 -195 -105
-368 -50 -173 -214 -751 -366 -1285 -152 -533 -339 -1190 -416 -1459 -76 -269
-139 -495 -139 -502 0 -7 64 -80 143 -161 217 -225 416 -431 583 -603 83 -85
164 -169 180 -186 16 -17 144 -149 284 -293 140 -145 268 -277 284 -295 16
-17 95 -99 175 -181 80 -83 214 -220 296 -306 225 -233 656 -680 687 -712 24
-24 33 -27 65 -22 21 4 55 13 76 21 20 7 37 12 37 9 0 -2 12 0 28 7 15 6 45
14 67 19 46 9 113 25 250 60 22 6 54 13 70 15 17 3 39 9 50 14 11 4 47 13 80
20 33 7 71 17 85 22 14 6 42 15 63 19 20 5 55 14 77 19 22 6 59 15 83 21 23 5
56 13 72 15 17 3 39 9 50 14 11 5 34 11 50 14 17 2 48 9 70 15 22 6 58 14 80
20 22 5 54 14 70 19 70 24 103 32 128 32 14 0 29 5 32 10 3 6 21 10 40 10 19
0 37 5 40 10 3 6 18 10 32 10 15 0 40 4 57 9 17 5 50 14 74 20 23 6 61 16 85
22 23 6 57 15 75 21 19 5 44 11 55 12 12 2 38 8 57 14 39 12 100 28 245 64 22
5 54 14 71 19 17 5 42 9 57 9 14 0 29 5 32 10 3 6 18 10 32 10 25 0 58 8 128
32 17 5 48 14 70 19 22 6 58 14 80 20 22 6 54 13 70 15 17 3 39 9 50 14 11 5
34 11 50 14 17 2 48 9 70 15 22 6 59 15 83 21 23 5 59 14 80 20 20 5 75 19
122 31 47 12 93 25 102 30 10 5 28 9 40 9 12 0 35 4 52 9 17 5 49 14 71 20
106 27 137 37 146 47 8 10 43 131 494 1714 125 437 299 1047 387 1355 88 308
163 572 165 587 6 31 33 2 -688 743 -249 256 -489 503 -524 540 -16 17 -167
173 -335 345 -168 173 -318 328 -335 345 -16 17 -154 159 -305 314 -151 156
-318 328 -370 382 -101 105 -104 107 -180 88z m104 -262 c259 -265 922 -949
975 -1006 19 -20 111 -115 205 -211 94 -97 241 -248 326 -336 218 -225 674
-697 811 -837 63 -65 115 -127 117 -138 3 -18 -112 -425 -797 -2828 -120 -422
-191 -657 -201 -661 -14 -8 -60 -21 -145 -41 -22 -6 -53 -15 -70 -21 -16 -5
-48 -14 -70 -19 -22 -4 -58 -12 -80 -18 -22 -6 -60 -15 -85 -21 -25 -6 -63
-15 -85 -21 -22 -6 -53 -13 -70 -15 -16 -3 -39 -9 -50 -14 -11 -5 -33 -11 -50
-14 -16 -2 -49 -10 -72 -15 -24 -6 -60 -15 -80 -20 -21 -5 -51 -14 -68 -19
-70 -24 -103 -32 -128 -32 -14 0 -29 -4 -32 -10 -3 -5 -18 -10 -32 -10 -15 0
-40 -4 -57 -9 -29 -9 -72 -21 -156 -41 -19 -5 -60 -14 -90 -21 -30 -6 -66 -16
-80 -22 -14 -5 -42 -14 -62 -18 -21 -5 -55 -13 -75 -19 -106 -26 -131 -32
-166 -37 -20 -3 -40 -9 -43 -14 -3 -5 -17 -9 -31 -9 -15 0 -40 -4 -57 -9 -17
-5 -50 -14 -73 -20 -85 -22 -129 -33 -178 -46 -27 -8 -69 -19 -92 -24 -24 -6
-62 -16 -85 -22 -24 -6 -61 -15 -83 -21 -22 -5 -54 -14 -71 -19 -17 -5 -42 -9
-57 -9 -14 0 -29 -4 -32 -10 -3 -5 -18 -10 -32 -10 -25 0 -58 -8 -128 -32 -16
-5 -47 -14 -67 -19 -21 -5 -57 -14 -80 -20 -24 -6 -60 -13 -81 -16 -20 -3 -40
-9 -43 -14 -3 -5 -17 -9 -31 -9 -15 0 -40 -4 -57 -9 -17 -5 -50 -14 -73 -20
-24 -6 -62 -16 -85 -22 -24 -6 -61 -15 -83 -20 -22 -6 -60 -17 -83 -24 -52
-17 -70 -11 -122 45 -28 31 -466 482 -620 640 -19 20 -156 162 -305 315 -148
154 -286 296 -305 316 -19 19 -159 163 -310 319 -151 157 -342 354 -425 439
-82 85 -163 169 -180 186 -16 18 -97 100 -179 184 -106 108 -147 156 -143 168
26 91 515 1806 723 2538 146 511 270 935 276 942 6 7 23 13 39 13 15 0 31 5
34 10 3 6 18 10 32 10 15 0 40 4 57 9 31 10 87 24 159 42 20 5 54 13 75 18 20
5 57 15 82 22 25 7 50 14 55 14 6 0 31 6 55 14 43 12 70 19 165 43 22 5 54 14
71 19 17 5 42 9 57 9 14 0 28 4 31 9 3 5 23 11 43 14 21 3 58 10 83 17 25 6
61 15 80 19 19 5 46 13 60 18 14 6 50 16 80 22 30 7 72 16 93 21 90 24 125 32
162 42 22 5 54 14 71 19 17 5 42 9 57 9 14 0 29 5 32 10 3 6 20 10 36 10 17 0
43 7 59 15 16 8 33 14 37 13 7 -3 40 6 129 33 17 5 42 9 57 9 14 0 29 5 32 10
3 6 21 10 40 10 19 0 37 5 40 10 3 6 18 10 32 10 15 0 40 4 57 9 17 5 50 14
74 20 84 22 128 33 177 46 28 8 69 19 93 24 193 49 206 52 238 62 17 5 42 9
57 9 14 0 29 5 32 10 3 6 18 10 32 10 15 0 40 4 57 9 17 5 51 15 76 21 25 6
59 16 75 22 42 14 103 29 148 35 20 3 40 9 43 14 3 5 17 9 31 9 25 0 50 6 118
28 64 21 75 16 159 -71z"/>
<path d="M12245 9948 c-68 -22 -93 -28 -118 -28 -14 0 -28 -4 -31 -9 -3 -5
-23 -11 -43 -14 -49 -7 -154 -33 -253 -62 -64 -20 -123 -34 -165 -41 -16 -3
-39 -9 -50 -14 -11 -5 -33 -11 -50 -14 -28 -4 -58 -11 -152 -36 -21 -5 -56
-14 -78 -19 -140 -35 -213 -55 -230 -62 -11 -4 -33 -10 -50 -13 -16 -2 -48 -9
-70 -15 -22 -6 -59 -15 -82 -21 -24 -5 -62 -15 -85 -21 -24 -5 -56 -13 -73
-15 -16 -3 -39 -9 -50 -13 -24 -10 -68 -22 -225 -61 -22 -5 -58 -14 -80 -20
-22 -5 -59 -15 -82 -21 -24 -5 -56 -13 -73 -15 -16 -3 -39 -9 -50 -14 -11 -5
-33 -11 -50 -13 -16 -3 -55 -12 -85 -21 -30 -10 -73 -22 -95 -27 -22 -5 -56
-14 -75 -19 -74 -19 -126 -31 -155 -36 -16 -3 -39 -9 -50 -14 -11 -5 -33 -11
-50 -14 -30 -5 -83 -17 -160 -37 -22 -6 -59 -13 -83 -16 -37 -4 -43 -8 -40
-27 2 -16 16 -25 58 -38 205 -65 2487 -708 2497 -704 8 3 15 11 18 18 49 154
415 1470 410 1478 -7 11 -9 11 -50 -2z"/>
<path d="M12466 9872 c-4 -8 -404 -1400 -412 -1437 -3 -11 -1 -26 4 -33 8 -12
2514 -732 2548 -732 31 0 6 32 -141 182 -182 186 -408 419 -780 803 -154 160
-348 360 -432 445 -83 85 -178 183 -210 216 -43 46 -419 435 -531 550 -15 15
-38 18 -46 6z"/>
<path d="M9171 9027 c-8 -10 -7 -26 3 -63 21 -72 81 -314 306 -1219 110 -445
209 -844 220 -885 11 -41 29 -113 41 -160 58 -236 60 -240 85 -240 8 0 57 42
110 93 52 50 151 146 218 212 68 66 222 215 342 330 120 116 248 239 284 275
37 36 178 173 315 305 137 132 290 281 341 330 51 50 137 133 193 186 98 93
111 111 92 123 -5 4 -571 166 -1258 361 -686 196 -1255 358 -1264 361 -9 2
-21 -2 -28 -9z"/>
<path d="M8993 8878 c-5 -7 -44 -134 -86 -283 -111 -395 -682 -2402 -719
-2527 -36 -126 -34 -142 19 -133 40 7 88 20 138 37 17 5 46 14 65 19 19 4 55
13 80 19 25 6 59 14 75 16 17 3 39 9 50 14 11 5 34 11 50 14 17 2 48 9 70 15
130 33 203 51 250 60 22 5 54 14 70 19 17 6 49 16 73 21 108 28 129 33 158 42
17 5 42 9 57 9 14 0 29 5 32 10 3 6 18 10 32 10 15 0 40 4 57 9 35 11 98 27
136 35 14 3 35 14 47 23 l22 18 -25 95 c-14 52 -30 113 -34 135 -5 22 -39 157
-76 300 -36 143 -69 271 -71 285 -3 14 -42 167 -86 340 -43 173 -83 333 -88
355 -5 22 -18 76 -30 120 -11 44 -24 96 -28 115 -26 113 -194 787 -200 799
-10 20 -26 24 -38 9z"/>
<path d="M11785 8127 c-50 -51 -189 -186 -309 -302 -120 -115 -260 -250 -311
-300 -51 -49 -179 -173 -284 -275 -106 -102 -246 -237 -311 -300 -65 -63 -204
-198 -310 -300 -358 -345 -352 -339 -348 -363 3 -25 -155 22 1577 -471 1119
-319 1113 -317 1096 -262 -3 12 -32 125 -65 251 -32 127 -66 257 -75 290 -9
33 -20 80 -25 105 -5 25 -19 79 -30 120 -12 41 -25 93 -29 115 -5 22 -59 238
-121 480 -179 705 -192 758 -200 795 -26 114 -120 472 -130 489 -6 12 -16 21
-23 20 -7 0 -53 -41 -102 -92z"/>
<path d="M12094 8195 c-4 -9 -2 -33 4 -53 7 -20 25 -91 41 -157 17 -66 53
-212 81 -325 29 -113 56 -223 61 -245 5 -22 18 -76 30 -120 11 -44 24 -96 28
-115 15 -64 81 -334 95 -385 8 -27 67 -261 131 -520 64 -258 125 -508 137
-555 12 -47 26 -91 33 -98 9 -10 36 11 131 103 65 64 217 211 337 328 120 117
287 280 372 362 84 83 254 248 378 368 124 120 281 273 350 340 68 67 172 168
231 225 105 101 119 125 86 143 -8 4 -573 166 -1254 359 -682 194 -1246 354
-1253 357 -7 3 -16 -2 -19 -12z"/>
<path d="M14484 7076 c-116 -116 -325 -321 -464 -456 -139 -135 -294 -285
-345 -335 -51 -49 -204 -199 -341 -332 -137 -132 -303 -294 -369 -358 -66 -64
-130 -124 -142 -132 -16 -10 -23 -25 -23 -46 0 -25 24 -54 153 -186 84 -86
234 -239 333 -341 98 -101 247 -254 330 -340 83 -85 171 -177 196 -204 27 -28
52 -47 59 -44 9 4 74 216 166 539 84 294 263 923 398 1399 135 476 257 900
270 942 24 76 24 110 1 106 -6 -1 -106 -96 -222 -212z"/>
<path d="M9650 6129 c-19 -4 -54 -13 -77 -18 -24 -6 -60 -15 -80 -20 -21 -5
-51 -14 -67 -20 -16 -6 -31 -9 -33 -7 -3 3 -17 0 -32 -6 -14 -6 -44 -15 -66
-20 -39 -9 -83 -19 -157 -38 -21 -6 -55 -14 -75 -20 -72 -18 -128 -31 -168
-40 -22 -4 -65 -15 -95 -24 -53 -17 -83 -24 -172 -46 -24 -6 -61 -15 -83 -21
-22 -6 -53 -13 -70 -15 -16 -3 -39 -9 -50 -14 -11 -5 -33 -11 -50 -14 -102
-17 -177 -44 -173 -62 2 -7 125 -137 273 -290 149 -152 296 -304 328 -338 32
-33 129 -133 215 -221 87 -88 306 -313 487 -500 182 -186 398 -409 481 -495
83 -85 196 -201 250 -257 54 -57 106 -103 116 -103 10 0 18 1 18 3 0 1 -5 18
-10 37 -6 19 -15 53 -19 75 -5 22 -46 186 -91 365 -102 407 -150 597 -206 825
-25 99 -63 250 -84 335 -21 85 -55 220 -75 300 -20 80 -54 217 -77 305 -22 88
-49 196 -60 240 -30 121 -29 121 -98 104z"/>
<path d="M9907 6083 c-3 -5 10 -72 29 -149 20 -76 38 -150 41 -164 3 -14 28
-113 55 -220 28 -107 54 -211 58 -230 4 -19 18 -73 30 -120 12 -47 24 -96 27
-110 3 -14 23 -95 45 -180 22 -85 55 -218 74 -295 19 -77 39 -156 44 -175 9
-34 56 -222 126 -505 19 -77 38 -156 43 -175 21 -77 50 -197 56 -222 9 -44 37
-34 114 40 133 128 453 437 541 522 136 130 461 444 565 545 51 50 177 171
280 270 369 355 435 420 435 433 0 7 -10 17 -22 22 -20 9 -2443 699 -2509 715
-15 4 -29 3 -32 -2z"/>
<path d="M12651 5283 c-8 -3 -56 -47 -106 -97 -51 -50 -179 -174 -285 -276
-246 -237 -326 -315 -594 -573 -239 -231 -241 -234 -566 -547 -395 -380 -374
-360 -361 -373 9 -9 16 -9 31 1 11 6 27 12 37 12 9 0 30 4 47 9 42 13 132 37
184 50 107 27 129 33 158 42 17 5 42 9 57 9 14 0 29 5 32 10 3 6 18 10 32 10
15 0 40 4 57 9 17 5 50 14 74 20 84 22 128 33 177 46 52 14 112 30 180 47 22
5 54 14 71 19 17 5 42 9 57 9 14 0 28 4 31 9 3 5 23 11 43 14 21 3 58 10 83
17 25 6 61 15 80 19 19 5 62 17 95 26 33 10 71 19 85 22 14 2 34 8 45 13 11 5
34 11 50 14 28 4 57 11 158 37 23 6 59 13 80 16 20 3 40 9 43 14 3 5 17 9 31
9 15 0 40 4 57 9 17 5 51 15 76 21 25 6 59 16 75 22 29 10 71 20 150 38 22 5
58 13 80 19 22 6 60 15 85 21 25 7 62 14 83 17 20 3 40 9 43 14 3 5 20 9 39 9
19 0 37 5 40 10 3 6 18 10 32 10 26 0 64 10 128 32 17 6 42 11 57 12 15 0 32
6 39 13 21 21 53 -14 -475 527 -182 186 -387 396 -455 467 -121 126 -131 133
-160 122z"/>
<path d="M6260 9179 c-398 -51 -810 -230 -1135 -492 -193 -156 -553 -551 -639
-699 l-21 -38 -417 0 -418 0 0 493 0 492 -78 78 -77 77 -775 0 -775 0 -78 -78
-77 -77 0 -2725 0 -2725 78 -78 77 -77 775 0 775 0 78 78 77 77 0 313 0 312
515 0 516 0 147 -151 c81 -84 190 -188 242 -231 282 -237 612 -393 977 -465
133 -26 152 -27 556 -31 350 -3 440 -1 550 13 495 63 892 278 1419 768 l105
97 307 0 c285 0 352 6 267 25 -23 5 -28 10 -24 26 4 15 -2 23 -26 32 -18 7
-31 18 -31 29 0 10 -13 24 -30 33 -17 9 -30 24 -30 34 0 13 -11 23 -33 30 -25
8 -33 17 -33 33 1 15 -8 24 -29 32 -22 8 -30 16 -27 29 3 13 -6 22 -27 30 -18
7 -31 19 -31 29 0 10 -13 24 -29 32 -16 9 -31 24 -34 36 -3 11 -19 25 -35 31
-18 6 -29 17 -28 27 0 10 -13 24 -31 33 -18 9 -30 19 -26 23 9 8 -27 46 -44
46 -7 0 -13 9 -13 20 0 12 -13 26 -32 37 -18 10 -33 25 -33 33 0 8 -13 22 -30
30 -16 8 -30 22 -30 30 0 8 -15 22 -32 31 -18 9 -30 19 -26 22 9 9 -18 38 -44
48 -13 5 -23 12 -22 16 4 24 -4 35 -31 44 -20 7 -30 18 -30 30 0 13 -10 24
-30 30 -20 7 -30 18 -30 31 0 13 -11 24 -30 31 -18 7 -30 19 -30 29 0 10 -13
24 -29 33 -16 8 -31 25 -33 37 -2 13 -14 25 -33 32 -20 7 -30 18 -30 31 0 13
-10 23 -30 30 -22 7 -29 15 -27 28 3 13 -6 22 -27 30 -18 6 -31 19 -33 31 -2
12 -16 28 -33 36 -16 8 -30 21 -31 28 -2 27 -5 31 -34 37 -17 4 -27 11 -24 16
8 14 -25 49 -47 49 -12 0 -16 6 -12 20 4 16 -2 23 -31 35 -23 10 -34 20 -30
29 7 19 -16 32 -27 15 -6 -10 -9 -8 -9 9 0 33 30 175 40 187 5 6 18 53 30 105
12 52 26 100 30 105 5 6 18 51 29 100 12 50 26 99 31 110 6 11 21 63 35 115
13 52 38 145 56 205 17 61 44 157 61 215 36 130 34 122 41 140 3 8 16 51 27
95 24 92 25 95 33 115 3 8 16 51 27 95 24 92 25 95 33 115 3 8 16 53 27 100
11 47 25 94 30 105 13 27 50 178 45 183 -2 2 -153 -137 -335 -310 -182 -172
-334 -314 -338 -315 -4 -1 -22 23 -40 55 -102 177 -295 400 -446 514 -93 70
-231 140 -326 165 -84 21 -225 22 -310 0 -36 -9 -105 -37 -155 -61 -365 -181
-619 -626 -712 -1251 -14 -95 -18 -184 -18 -430 0 -346 9 -431 70 -671 80
-312 201 -543 379 -720 142 -141 277 -210 461 -235 156 -20 361 18 517 97 182
92 443 289 678 510 l67 64 381 -363 381 -362 -42 -43 c-72 -74 -303 -282 -400
-360 -315 -253 -670 -429 -989 -491 -311 -60 -733 -52 -1037 19 -837 197
-1454 872 -1664 1820 -59 265 -82 521 -74 820 15 542 116 973 324 1384 467
920 1453 1426 2408 1235 315 -63 643 -222 920 -446 96 -78 288 -267 351 -346
l30 -37 24 102 c13 57 27 105 30 108 4 3 16 42 27 87 l21 82 -142 139 c-315
308 -648 503 -1026 597 -188 47 -282 55 -646 54 -187 -1 -368 -5 -404 -10z
m-2930 -2969 l0 -2570 -630 0 -630 0 0 2570 0 2570 630 0 630 0 0 -2570z"/>
</g>
</svg>
